<svg id="visual" viewBox="0 0 960 540" width="960" height="540" xmlns="http://www.w3.org/2000/svg" xmlns:xlink="http://www.w3.org/1999/xlink" version="1.1"><rect x="0" y="0" width="960" height="540" fill="#001220"></rect><path d="M0 375L22.8 371.2C45.7 367.3 91.3 359.7 137 361.2C182.7 362.7 228.3 373.3 274 379.2C319.7 385 365.3 386 411.2 374.3C457 362.7 503 338.3 548.8 339.7C594.7 341 640.3 368 686 382.8C731.7 397.7 777.3 400.3 823 392C868.7 383.7 914.3 364.3 937.2 354.7L960 345L960 541L937.2 541C914.3 541 868.7 541 823 541C777.3 541 731.7 541 686 541C640.3 541 594.7 541 548.8 541C503 541 457 541 411.2 541C365.3 541 319.7 541 274 541C228.3 541 182.7 541 137 541C91.3 541 45.7 541 22.8 541L0 541Z" fill="#fa7268"></path><path d="M0 417L22.8 408.8C45.7 400.7 91.3 384.3 137 379.8C182.7 375.3 228.3 382.7 274 389C319.7 395.3 365.3 400.7 411.2 401.5C457 402.3 503 398.7 548.8 392.5C594.7 386.3 640.3 377.7 686 376.7C731.7 375.7 777.3 382.3 823 390.8C868.7 399.3 914.3 409.7 937.2 414.8L960 420L960 541L937.2 541C914.3 541 868.7 541 823 541C777.3 541 731.7 541 686 541C640.3 541 594.7 541 548.8 541C503 541 457 541 411.2 541C365.3 541 319.7 541 274 541C228.3 541 182.7 541 137 541C91.3 541 45.7 541 22.8 541L0 541Z" fill="#ef5f67"></path><path d="M0 457L22.8 456C45.7 455 91.3 453 137 448.5C182.7 444 228.3 437 274 429.8C319.7 422.7 365.3 415.3 411.2 412C457 408.7 503 409.3 548.8 410.7C594.7 412 640.3 414 686 421.8C731.7 429.7 777.3 443.3 823 442.2C868.7 441 914.3 425 937.2 417L960 409L960 541L937.2 541C914.3 541 868.7 541 823 541C777.3 541 731.7 541 686 541C640.3 541 594.7 541 548.8 541C503 541 457 541 411.2 541C365.3 541 319.7 541 274 541C228.3 541 182.7 541 137 541C91.3 541 45.7 541 22.8 541L0 541Z" fill="#e34c67"></path><path d="M0 466L22.8 469.2C45.7 472.3 91.3 478.7 137 473.5C182.7 468.3 228.3 451.7 274 446.3C319.7 441 365.3 447 411.2 454.5C457 462 503 471 548.8 475.3C594.7 479.7 640.3 479.3 686 473.8C731.7 468.3 777.3 457.7 823 455.7C868.7 453.7 914.3 460.3 937.2 463.7L960 467L960 541L937.2 541C914.3 541 868.7 541 823 541C777.3 541 731.7 541 686 541C640.3 541 594.7 541 548.8 541C503 541 457 541 411.2 541C365.3 541 319.7 541 274 541C228.3 541 182.7 541 137 541C91.3 541 45.7 541 22.8 541L0 541Z" fill="#d53867"></path><path d="M0 516L22.8 515.7C45.7 515.3 91.3 514.7 137 510.8C182.7 507 228.3 500 274 499.3C319.7 498.7 365.3 504.3 411.2 504.3C457 504.3 503 498.7 548.8 497.2C594.7 495.7 640.3 498.3 686 500.2C731.7 502 777.3 503 823 498.8C868.7 494.7 914.3 485.3 937.2 480.7L960 476L960 541L937.2 541C914.3 541 868.7 541 823 541C777.3 541 731.7 541 686 541C640.3 541 594.7 541 548.8 541C503 541 457 541 411.2 541C365.3 541 319.7 541 274 541C228.3 541 182.7 541 137 541C91.3 541 45.7 541 22.8 541L0 541Z" fill="#c62368"></path></svg>